<svg id="Logo" xmlns="http://www.w3.org/2000/svg" viewBox="0 0 153.07 106.34"><defs><style>.cls-1{fill:#1d1d1b;}</style></defs><path class="cls-1" d="M115.25,25.49c.69,0,2.13.75,2.27-.13-.28-.63-1.94-.44-2.46-.41a8.57,8.57,0,0,0-4.27,1.41,13.34,13.34,0,0,0-3.14,2.9,20.42,20.42,0,0,0-1.4,1.95c-.39.61-1,1-.3,1.5,2-3.49,5-7.13,9.39-7.22a5.64,5.64,0,0,0-.92,0,4.6,4.6,0,0,1,.83,0Z"/><path class="cls-1" d="M110.59,32a5.4,5.4,0,0,1,2.54-1.18c.67-.11,2,.52,2.05-.3-.23-.5-1.5-.31-1.9-.27a6.18,6.18,0,0,0-3.24,1.5,12.24,12.24,0,0,0-2.6,3.05c-.36.58-.68,1.17-1,1.77s-.62.8,0,1.14a18.56,18.56,0,0,1,4.46-6,7.72,7.72,0,0,1-.72.56l.36-.27C111.76,31,109.33,33,110.59,32Z"/><path class="cls-1" d="M125.32,32.14a9,9,0,0,1,.65,4.51c0,.43-.67,2.58.23,2.53,0-3.14,1-6.82-1.84-9.14a4.4,4.4,0,0,0-1.78-.89c-.29.49.12.67.54.81,1.25.4,1.75,1.45,2.33,2.52-.11-.21-.21-.45-.3-.67,0,.1.13.25.17.33C125.9,33.49,124.78,31,125.32,32.14Z"/><path class="cls-1" d="M123,41.29c-.11.52-.6,1.12.2,1.21.62-3.69,1-7.22-1.88-10.13-.64.4,1.32,2.81,1.53,3.46a12.11,12.11,0,0,1,.14,5.52,2.74,2.74,0,0,0,0-.28.6.6,0,0,1,0,.22Z"/><path class="cls-1" d="M120.59,39.87a10.62,10.62,0,0,0-1.76-5.69c-.74.27.16,1.61.36,2a7.45,7.45,0,0,1,.85,3.22,9,9,0,0,1-.66,3.91c-.2.5-1.5,1.85-.68,2.25.22-.72.94-1.46,1.23-2.2a9.91,9.91,0,0,0,.66-3.81q0,.78,0,1.56c0-.41,0-.81,0-1.22C120.6,38.21,120.59,43.3,120.59,39.87Z"/><path class="cls-1" d="M115.67,44.69c-.12.43-.78,1.33,0,1.46.11-1.55.9-2.89.91-4.49a10.29,10.29,0,0,0-1.16-4.87c-.8.23.43,2.67.53,3.37a14.08,14.08,0,0,1-.35,4.62,3.57,3.57,0,0,1,.1-.35c0,.08,0,.17-.08.26C115.53,45.21,115.9,43.92,115.67,44.69Z"/><path class="cls-1" d="M105.42,27.47c1.71-2.94,3.91-6.39,7.38-7.4a4.66,4.66,0,0,1,4.36.64c1,.85,1,3.08,1.15,4.29a9.52,9.52,0,0,1-.93,5.8c-.83,1.49-2.47,2.31-3.86,3.17a16.81,16.81,0,0,0-3.87,3.32,6,6,0,0,0-1.29,2.26c-.31,1.2.39.9.62,0,.44-1.77,2.44-3.37,3.8-4.46s3.43-1.86,4.55-3.26c1.87-2.28,1.93-6.23,1.38-9-.72-3.65-4.27-4.34-7.32-2.8a12.27,12.27,0,0,0-4,3.46,23.36,23.36,0,0,0-1.54,2.19C105.54,26.19,104.49,27.21,105.42,27.47Z"/><path class="cls-1" d="M130.66,73.82c-2.69-3-7.75-2.3-11.19-1.27-4.83,1.44-8.09,4.73-11.79,7.94-1.33,1.16-3.45,3.35-5.34,3.35a5.62,5.62,0,0,1-1.72-.41c-.9-.32-.44-.91-.24-1.67.69-2.53,1.29-5.09,2.06-7.59A13.32,13.32,0,0,1,104,71c.48-.77,1.4-1.33,1.67-2.22A2.31,2.31,0,0,0,109,70.58a1.94,1.94,0,0,0,.54-2.57c-.85-1.56-2.17-.84-3.39-.31.15-.49.76-.57,1.18-.67A5.64,5.64,0,0,0,109.42,66c.83-.67,1.81-2.73,1.23-3.81-.35-.64-2,0-2.46.19a4.67,4.67,0,0,0-2.51,3.23,1.91,1.91,0,0,0-2.82-2,2,2,0,0,0,1.24,3.79c-1.57,1.89-5,3.05-7.33,2.05a10,10,0,0,1-5.09-5.8c1.89-.33,2.56,1.43,2.51,3a4.09,4.09,0,0,0,2.69-4.28,5.69,5.69,0,0,0,4.1-1.85A17.21,17.21,0,0,1,103.1,59a4.74,4.74,0,0,0,1.58-1.86c.93-1.55,2-3,2.94-4.54.54-.85,1.52-3.36,2.2-3.68.28-.77,2.58-.14,3.11,0a13,13,0,0,0,5.28,0,15.62,15.62,0,0,0,9.7-7.77A13.18,13.18,0,0,0,128,29.25a13.3,13.3,0,0,0-2.83-4.2,5.37,5.37,0,0,0-1.82-1.17c-.58-.22-1.33-.13-1.55-.82-.35-1.45-2.06-2.72-3.16-3.63a15,15,0,0,0-4.8-2.79c-3.74-1.21-6.95,1.18-9.29,3.89-.51.59-.73.33-1.35.62a6.84,6.84,0,0,0-1.82,1.35,47.65,47.65,0,0,1-3.79,3.43,18.83,18.83,0,0,0-3.3,3.49,5.48,5.48,0,0,0-.82,2.07c-.17.74.07,2.28-.49,2.82a7.74,7.74,0,0,0-2.2,3.83c-.19.72-.05,1.49-.19,2.22-.11.55-.82,1.22-1.12,1.76a6.15,6.15,0,0,0-.88,2.41A3.42,3.42,0,0,1,88,46.82c-1,1.27-.78,4.2-.85,5.75,0,1.39,0,2.72.06,4.09,0,.42.36,2.52-.16,2.74-2.46,1.07-1.57,4.69.19,6,.54-1.55,1.6-3.06,3.37-2-1.19,2.09-3.79,3.23-6,4a7.18,7.18,0,0,1-7.52-1.84c.73-.38,2,.88,2.75,1.1s2.09.56,2.79-.22a3.24,3.24,0,0,0,.67-2.69c-.21-1.05-1.28-1.35-2.19-1.58.76-.53,1.55-1,1.51-2.08a3,3,0,0,0-1.73-2.55C82.57,55,82.56,51.12,82,48.25c1.34-1.67,1.35-3.6,1.63-5.62.55-1.85,2-3.56,2-5.56a7.18,7.18,0,0,1,1.1-2.93A23.68,23.68,0,0,1,88,30.75c.57-.91,1.16-1.82,1.65-2.77s.67-1.82,1.41-2.37,1.45-.68,2.06-1.21A8.27,8.27,0,0,0,95,21.84,12.11,12.11,0,0,0,94.87,10a11.91,11.91,0,0,0-9-6.48,15.33,15.33,0,0,0-6,.16,7.36,7.36,0,0,0-2.55,1.07c-.78.54-1.41,1.43-2.22,1.89s-1.87.1-2.66.25A7.29,7.29,0,0,0,69.86,8c-.86.52-1.55,0-2.44-.27C66.24,7.39,65.08,7,63.9,6.66c-4.06-1.12-8.26-.59-11.09,2.76A12,12,0,0,0,50.2,20.05a8.93,8.93,0,0,0,4.69,6.32c.47.24.5.86.85,1.23a4.33,4.33,0,0,0,2,1.09c.61.18,1.31.13,1.55.84s.23,1.22.46,1.82A16.07,16.07,0,0,0,62,34.78C62.8,36,63,37.5,64,38.73s1.71,1.41,2,2.93a10.75,10.75,0,0,0,1.79,4.68c.89,1.41,0,3.18.23,4.7a10.62,10.62,0,0,0,1.85,4.36A6.79,6.79,0,0,1,70.79,57c.22.68-.33.73-.74,1.16-1.45,1.51-.9,3,.61,4-.78.19-1.8.43-2.1,1.28a3.13,3.13,0,0,0,.71,3.12c.74.71,2.29.24,3.13-.07.44-.17,1.67-1.34,2.11-1-2.09,1.33-4.66,2.72-7.23,2.3S62.84,65.55,61,64c2-1.29,3,.34,3.07,2.24a3.91,3.91,0,0,0,1.81-2.71c.26-1.33-.34-1.76-.7-2.91a55.2,55.2,0,0,0-1.17-12,13.25,13.25,0,0,0-2-5.08,38.88,38.88,0,0,1-2.94-5.24,27.13,27.13,0,0,0-3.29-4.6,15.93,15.93,0,0,1-1.9-2.29,14.49,14.49,0,0,0-1.6-2.37A26.82,26.82,0,0,0,48,25.51a15.74,15.74,0,0,0-5.54-3c-.63-.33-1.05-.94-1.68-1.29a6.81,6.81,0,0,0-2.16-.73c-1.68-.3-3.1-1-4.88-.87-3.23.28-5.27,2.53-6.47,5.35C26.71,26.31,26,26.3,24.83,27a4.54,4.54,0,0,0-2,4c0,.82.09,1.4-.55,2a4.93,4.93,0,0,0-1.21,1.8c-.84,2-.09,2.95.83,4.64.51.7.33,1.76.56,2.57a7.54,7.54,0,0,0,1.23,2.39,10.09,10.09,0,0,0,4.61,3.38c4.14,1.45,8.49-.51,12.14-2.38.58,2.45,2.15,4.52,3.68,6.47.73.92,1.4,1.26,1.65,2.44a5.81,5.81,0,0,0,1.83,3.26c1.22,2.23,3.89,5,6.65,5-1.21,2.14.86,4.65,3,5.11-.31-1.53.24-4.31,2.39-3.52-1,2.06-2.44,5.27-5.08,5.53-1.8.18-5.07-.5-5.73-2.49a2,2,0,0,0,1.47-3.59,1.9,1.9,0,0,0-3.08,1.79A4.85,4.85,0,0,0,45,62.38c-.63-.34-2.52-1.05-2.85-.16a4.33,4.33,0,0,0,1.28,3.63,6.52,6.52,0,0,0,1.75,1c.53.21,1.23.21,1.54.78-1.13-.46-2.17-1.22-3.18,0a2,2,0,0,0,.11,2.75c1.28,1.13,3.45,0,3.53-1.63,2,.37,3,4.38,3.5,5.83A82.68,82.68,0,0,1,53,83.47c-.17.56-1.36.8-1.84.85a3.88,3.88,0,0,1-2.56-.87A45.14,45.14,0,0,1,43.33,79a24.72,24.72,0,0,0-11.07-6.35c-3.46-.8-8.18-.92-10.36,2.45a5.88,5.88,0,0,0-1,3.51c.12.56.37.6.2,1.34-.11.43-.32,2.57.44,2.57-.64,2,1.51,3.86.66,5.83-.76,1.74-.65,4.86,1.17,6,1.3.79,3.84,1,5.11,0A3.26,3.26,0,0,0,29,90a38.68,38.68,0,0,1,8.88,4.1c2.77,1.63,5.67,3.43,9,3.14A12.73,12.73,0,0,0,54.35,94c2.47-2.22,3.46-5.6,4.2-8.74.19-.83,2.77-.1,3.37,0s1.9-.16,2.09.42a7.1,7.1,0,0,0,.82,1.9,8.12,8.12,0,0,0,2.1,1.71c.61.43.16,4,.16,4.79,0,.64-.24,2,.13,2.57.47.8.52-2,.52-2.16V85.9c0-.54,0-.72.61-.56a4.93,4.93,0,0,0-.49,2c1-.44,1.44-1.18,2.24-1.85a5.86,5.86,0,0,1,3,0c.51.32.57,1.39.89,1.89a4.61,4.61,0,0,0,2.39,2,5.6,5.6,0,0,0-2.11-3.91c.52,0,1.69-.36,2.11.1s.05,3.23.05,4v7.09c0,.41.66.76.66.17.3-.57,0-2.08,0-2.74v-8c0-.86.32-.59,1.07-.59a5.88,5.88,0,0,0-1,2.78,5.48,5.48,0,0,0,2.65-2.38c.49-.71,1.89-.4,2.61-.4s.88,1.05,1.2,1.74a4.8,4.8,0,0,0,2.49,2.27c.22.37,0,1.33,0,1.74v3c0,.55-.27,2.14.06,2.56.55.68.55-1.53.55-1.53V86.5c0-.64-.24-1.39.67-1.15a5.23,5.23,0,0,0-.54,1.94c1.33-.47,1.93-2,3.29-2.21s2.82-.34,4.24-.57c1.17,5.89,4.65,10.82,10.84,12,3.73.73,6.5-1,9.64-2.78s6.19-3.51,9.65-4.39A3.26,3.26,0,0,0,125.3,94c1.47.82,4.23.54,5.23-.93a5.47,5.47,0,0,0,.85-3.11c0-1.16-.63-2.1-.69-3.22,0-.92.56-1.73.69-2.66.06-.47,0-1.85.4-2.16.75-.42.29-3,0-3.54,1.69-.59-1-4.29-1.58-5,.29.35.61.67.91,1-.15-.19-.33-.37-.49-.55C128.35,71.27,132.3,75.65,130.66,73.82Zm-24.22-5.34c.77-.41,2-1.11,2.49,0C109.91,70.51,106,70.63,106.44,68.48Zm1.32-5a4.22,4.22,0,0,1,2.18-.69c-.12,2.18-1.73,3.33-3.72,3.78a5.28,5.28,0,0,1,1.64-3.18l-.49.41.39-.32ZM43.6,64.94a3.9,3.9,0,0,1-.69-2.29,4.13,4.13,0,0,1,3.7,3.78,5.91,5.91,0,0,1-3.11-1.58l.41.41-.31-.32C43.1,64.45,44.52,65.89,43.6,64.94Zm1.85,5c-1.82.72-2.14-3,.35-1.91,1,.65.55,1.31-.37,1.91l.21-.11-.19.11C43.46,70.69,46,69.62,45.45,69.91Zm56.89,14.46c1.77,0,3.53-1.71,4.82-2.75,1.77-1.43,3.29-3.1,5.06-4.5a22.06,22.06,0,0,1,8-4.21c4.37-1.15,11.37-1.19,11.46,4.91-1.93-2.2-4.31-4.12-7.39-4a18.18,18.18,0,0,0-9.55,3.41c-3.81,2.73-10.31,11.49-15.36,6.07C100.37,83.67,101.22,84.37,102.34,84.37Zm29.2-3.17c-.93-2.49-3.95-3.8-6.45-3.94-3.64-.2-7,2-10,3.88s-6,4.44-9.52,5.53c-3.16,1-6-1-7.62-3.56.59,0,.9.56,1.28.9A6.57,6.57,0,0,0,102,85.5a6.67,6.67,0,0,0,5.35-1.35c3-2.05,5.42-5,8.5-7,2.75-1.81,6.36-3.29,9.71-2.79A8.28,8.28,0,0,1,130,76.83a4.62,4.62,0,0,1,1.52,4.37.47.47,0,0,1,0-.33q.14.1,0,.33C130.62,78.76,131.63,80.53,131.54,81.2Zm-.92,3.93A2.41,2.41,0,0,0,130.2,87c-5.29-4.84-13,.88-17.8,3.66-3.19,1.87-6.6,3.35-10.21,1.58a11.49,11.49,0,0,1-6.5-9.54c.59-.08.45.58.55.94a7.86,7.86,0,0,0,1.48,2.55,12.28,12.28,0,0,0,4.42,3.47c3.86,1.76,7.66-1,10.79-3s6.44-4.56,10.32-5a8,8,0,0,1,5.09,1.11c.53.32,2.92,1.77,2.08,2.52a1.23,1.23,0,0,0,.2-.19C130.16,85.6,130.62,85.09,130.62,85.13ZM105.37,66.42c.08-.18.15-.37.24-.55-.1.3,0,.56-.35.75a2,2,0,0,1,.11-.2C105.44,66.28,105.33,66.47,105.37,66.42Zm0,1c-.21.47-.4.89-1,1,.12-.51.56-.72,1-1,0,.13-.1.19-.2.15l.2-.15C105.19,68,105.07,67.66,105.42,67.45Zm-1.37-.89a1.27,1.27,0,0,1-.74-2.39c1-.64,1.57.75,1.57,1.43C104.64,66.1,104.64,66.56,104.05,66.56Zm.13,1.81c0,.19-.23.3-.46.33C103.91,68.58,104.05,68.47,104.18,68.37Zm-10.73-14a6.54,6.54,0,0,1,.3,4.59c-.28.92-1.1,2.42-2.19,2.61s-.7-2.8-.61-3.33a6,6,0,0,1,2.5-3.87c.39.81-.83.55,0,0C94,55.57,92.54,55,93.45,54.42Zm-2.14,8a1.86,1.86,0,0,1-.12-.38c.12,0,.19.09.31.12-.08.09-.13.18-.19.26-.06-.12.06-.08,0,0C91.25,62.28,91.37,62.32,91.31,62.4Zm4.83.7a3.49,3.49,0,0,1-1.27,2.27,2.79,2.79,0,0,0-2.72-2.6c1.5-1.46,4.18-2.19,3.93.74,0-.09.11-.8.06-.41C96,64.33,96.22,62.41,96.14,63.1Zm10-18.64a19.77,19.77,0,0,0,1.71,2.47c.39.49,1,.83,1.3,1.39.65,1.19-2.07,1.46-2.66,1.49-3.19.18-7.09-.91-10,.92a9.4,9.4,0,0,1,4.5-4.68,14,14,0,0,1,3.12-1.19c.52-.14,1.06-.25,1.6-.35.74-.11.4.36.79.7a2.85,2.85,0,0,1-.39-.75C106.61,45.32,106,44.48,106.1,44.46ZM111,16.82c3.2-.6,6.34,2,8.5,4a7.31,7.31,0,0,1,2.2,3.25,6.27,6.27,0,0,1-.39,2.55,16.39,16.39,0,0,1-1,3c-1.52,3.52-4.46,4.75-7.18,7.13a10.62,10.62,0,0,0-3.71,8.44,2,2,0,0,0,.54,0c-.61-4.66,2.87-7.68,6.34-10a12,12,0,0,0,4.55-5.4A21.62,21.62,0,0,0,122,26.28c.12-.5,0-1.79.51-2.08,2.93.71,4.76,4.15,5.66,6.74a12.62,12.62,0,0,1-.24,9.09c-2.07,4.8-7.47,8.94-12.84,8.58A20.12,20.12,0,0,1,110.2,48c-1.25-.41-2.06-1.73-2.73-2.79A24.77,24.77,0,0,1,104,36.48a53.45,53.45,0,0,1-.69-8.57,17.51,17.51,0,0,1,.26-3.83,7.93,7.93,0,0,1,.63-1.89,9.71,9.71,0,0,0,.76-1.31c1.08-1.23,3.5-3.75,6-4.06h0C114.11,16.22,108.41,17.13,111,16.82Zm-11.57,8.4c-.85,2.51-.11,5.33.37,7.83.25,1.18,1.39,4.32.43,5.32a15,15,0,0,1-1.84,3.2c-.24-3.26-1.4-6.35-2.09-9.52-.26-1.16-.76-2.76-.12-3.88a10.34,10.34,0,0,1,3.25-3c-.16.42-1,.59-1.11.86.1-.31.88-.7,1.11-.86C98.43,28,97,26.91,99.38,25.22ZM95.3,29.11a35.45,35.45,0,0,0,1.53,8,36.25,36.25,0,0,1,.92,4.23,2.24,2.24,0,0,1-.44,2c-.39.65-.78,1.3-1.12,2-1.27-.59-1.51-3-1.77-4.22-.54-2.38-1.27-4.6-.69-7,0-1.64.09-3.85,1.57-4.91,0,1.39-1.55,1.11,0,0C95.42,33.6,93.53,30.38,95.3,29.11ZM93,34.91c.06,3.3.73,7.47,2.5,10.32.69,1-.4,2.17-.82,3.14C93.31,46,91.07,43.86,90.92,41c.6-1.87.09-4.75,2-6.05,0,1.38-.73.49,0,0C93,37.24,92.15,35.45,93,34.91Zm-2.5,6.55c.17,2.09,1.48,3.85,2.64,5.51.43.63,1.18,1.3,1.16,2.13,0,1.12-.75,2.38-1,3.51,0,.25,0,1.06.44.49a2.2,2.2,0,0,0,.18-.88A20.24,20.24,0,0,1,95,48.78a45.7,45.7,0,0,1,3.6-6.63c1.14-1.85,2.38-3.56,2.17-5.83s-.83-4.46-1.1-6.71c-.2-1.75-.42-3.83.62-5.36.71-1.05,2.11-2.74,3.52-2.74-1.92,3-1.27,7-1.14,10.39a26.69,26.69,0,0,0,3.1,12c-4.64.9-9.15,3.36-10.27,8.31,1.7-1.65,3.68-1.94,6-1.94s5.09.47,7.18-.41c-.25.59-.82,1-1.12,1.51a9.27,9.27,0,0,1-1.27,1.94,5.71,5.71,0,0,1-4.16,1.49,30.94,30.94,0,0,1-4.68-.71,3.63,3.63,0,0,0-2.19,0c-.26.15-.06.64.11.53,1.35-.68,3.54.35,4.93.54a9.05,9.05,0,0,0,5.5-.77c-.45.65-1.13,2.3-1.77,2.69s-1.7.11-2.45.33c-2.14.65-4.1,2.47-6.33.75-.83,1.31,2.84,1.24,3.59,1.05,1.73-.44,3.15-1.55,5-1.55-.85,1.06-2.28,1.54-3.25,2.49a4.71,4.71,0,0,1-3.91,1.57,2.83,2.83,0,0,0-2.62-1.54,7.59,7.59,0,0,0,.32-5.6c-.32-1-.49-1.5-1.43-.81a7.13,7.13,0,0,0-1.84,2c-2.19-4.5-3.52-9.83-.65-14.36,0,.09.09.71-.07.82s0-.76.07-.82C90.63,43.54,90,42.14,90.46,41.46ZM87.7,51.3a23.59,23.59,0,0,1,.42-3.65,21.81,21.81,0,0,0,2.57,8.48L91,56a6.9,6.9,0,0,0-1,4.11A2.74,2.74,0,0,0,89,59.34c-.54-.2-1.27.13-1.32-.48A28,28,0,0,1,87.56,56c0-1.55,0-3.11.14-4.67C87.75,50.09,87.61,52.3,87.7,51.3Zm1.55,10.9A2.78,2.78,0,0,0,86.88,64c-.7-1-1.06-3,.21-3.75,1.68-1.07,2.8.81,3.29,2.18A2.85,2.85,0,0,0,89.25,62.2ZM76.12,65c-2,.24-2.35-2.74-.77-3.47a1.22,1.22,0,0,1,1.64.88,1.86,1.86,0,0,0,.51.79A4.64,4.64,0,0,1,77,64.7a1.35,1.35,0,0,1-.84.32C75,65.16,76.43,65,76.12,65ZM74.4,55.84a2.14,2.14,0,0,1,2.94,0c.6.88.34,2.34.12,3.3-.5.51-1.32,1.87-2.15,1.44-.28-.59-.82-1-1.06-1.66a5.55,5.55,0,0,1,.15-3.1,3.06,3.06,0,0,0-.12.48,4.21,4.21,0,0,1,.12-.48C74.94,55.15,74.08,57,74.4,55.84Zm8,7.66a2,2,0,0,1-.11,2.11c-.38.65-1.07.6-1.71.44a7.26,7.26,0,0,1-1.93-.81c-.87-.51-.32-1.22-.32-2A5.24,5.24,0,0,0,80,62.77a6.09,6.09,0,0,1,2.34.73c0-.06-.25-.08-.34-.17a1.8,1.8,0,0,1,.34.17C82.87,64.12,81.58,63.06,82.38,63.5Zm-.89-4.41c1.27,2-2.58,4-3.78,2.46-.72-.9.77-2.12,1.39-2.6,1.2-.94,1.62-.64,2.54.35a1.66,1.66,0,0,1-.3-.43,1.07,1.07,0,0,1,.15.22C82.22,60.25,81,58.34,81.49,59.09Zm-1.14-1.66a5.72,5.72,0,0,0-2,1c.05-.95-.66-2.37,0-3.22A19.52,19.52,0,0,1,81.62,52c.36,1.54,0,4.32-1.27,5.43C79.63,57.6,81.4,56.48,80.35,57.43ZM50.83,20.29c-1.65-4.32.63-10,4.49-12.4A10.31,10.31,0,0,1,63,7a34,34,0,0,1,4.14,1.22l1.77.62c.75.26.08,1.65,0,2.4-3.58-.68-7.69-.75-10.79,1.44s-4.2,6.29-4.2,10a2.26,2.26,0,0,0,.53-.06,10.7,10.7,0,0,1,3.15-8.89c3-2.78,7.51-2.7,11.27-2a14.59,14.59,0,0,0,0,1.87c-7.54-.93-13,5.18-13.8,12.25-2.29-.65-3.87-3.38-4.23-5.59C49.26,16.18,51.18,22.42,50.83,20.29Zm4.92,6.14c-.76-.82.24-2.88.55-3.73a14.92,14.92,0,0,1,3-5.36,10,10,0,0,1,5.64-3.08A13.19,13.19,0,0,1,68,14.1c1.15.08.93.63,1.16,1.55a9.94,9.94,0,0,0-7.39,3.15C59.84,21.11,59.7,24.1,59.7,27c.9.13.49-1.81.47-2.25a8.89,8.89,0,0,1,1.49-4.87,7.62,7.62,0,0,1,3.73-2.92,10.64,10.64,0,0,1,2.13-.57q.65-.11,1.32-.15c.68,0,.54.32.75.89a7.75,7.75,0,0,0-4.66,3.73c-1.1,2.13-.8,4.41-.8,6.72.89,0,.34-1.72.34-2.22a9.27,9.27,0,0,1,.87-4.11,7,7,0,0,1,2.15-2.51A8.12,8.12,0,0,1,69,17.89a8,8,0,0,1,.82-.29,10.47,10.47,0,0,0,.73,1.46,7.26,7.26,0,0,0-2.82,5.23c0,1.13.11,3.62,1.7,3.66.11-.56-.54-1-.78-1.43A4.7,4.7,0,0,1,68.18,24a7.07,7.07,0,0,1,2.59-4.48c1,1.61,2.74,3,2.84,5a4.54,4.54,0,0,1-.88,2.84c-.36.51-1.59,1.1-.92,1.66,1.32-1.31,2.5-2.75,2.29-4.72S72.35,21,71.32,19.41a12.15,12.15,0,0,1-2-6.23c0-.36.6-4.36.26-4.38a6.72,6.72,0,0,1,3.2-1.4c.55,0,2,.37,2.38-.05a10.34,10.34,0,0,1,6.93-3.43c5.78-.45,10.2,2.23,12.79,7.34C89.1,7.86,81.54,6.35,75.34,9.67c-2.86,1.53-4.11,4.18-2.75,7.24,1.27,2.85,3.92,5,3.87,8.35,0,.67-1.14,3.15-.38,3.34A8.49,8.49,0,0,0,77,25.22c.2-1.75.79-2.12,2.44-1.19a20.25,20.25,0,0,1,4.36,3.85c.56-.58,0-.81-.54-1.33-.71-.71-1.44-1.4-2.21-2s-3.27-2.66-4.24-1.09c-.35-2.23,3.33-2.63,4.92-2.47a13.31,13.31,0,0,1,7,3.48c.43-.54.25-.52-.29-.94s-.9-.67-1.38-1a15,15,0,0,0-3.52-1.7,7.06,7.06,0,0,0-7.14,1.25,8.85,8.85,0,0,0-1.59-2.5c-.65-.85.46-1.73,1.12-2.2a18.94,18.94,0,0,1,8.95.16,10.77,10.77,0,0,1,3.94,2,8.7,8.7,0,0,1,1.54,1.61c.32.45.61,1.69,1.25,1.1-.09-1-1.29-2-2-2.6a12,12,0,0,0-3.93-2.4,17.51,17.51,0,0,0-9.14-.53,10.72,10.72,0,0,1,10.68-2.34,16.44,16.44,0,0,1,5.3,3.21,14,14,0,0,0,1.83,1.79c.53.3.32-.45.17-.63-.29-.36-.61-.7-.93-1C91,15.07,87.15,13,83.37,13.19s-7,2.53-9.26,5.35a13,13,0,0,1-1.29-2.41c.46-.07,1-1.26,1.31-1.59a10.68,10.68,0,0,1,2.37-1.91A12,12,0,0,1,82.56,11c4.65,0,9,2.1,12.85,4.51.34-.58.19-.53-.39-.87s-.89-.53-1.37-.78c-.93-.51-1.91-1-2.89-1.4a23.69,23.69,0,0,0-6.5-1.79,12.15,12.15,0,0,0-11.63,4.9c-.88-3.17,1.91-5.23,4.53-6.22a18.6,18.6,0,0,1,12-.1,20.43,20.43,0,0,1,5.51,2.38c1.58,1.06,1.54,3.67,1.3,5.3-.4,2.72-1.72,7.3-4.88,7.92-2.44.76-4.14,2.95-6.59,3.77-1.28.44-2.63.6-3.93.94a34.68,34.68,0,0,1-4.46,1.13,26,26,0,0,1-8.71,0c-2.91-.67-5.59-2.05-8.59-2.31-1-.18-3-.7-3.08-2C55.1,25.73,55.82,27.7,55.75,26.43ZM67.13,44.11a19.22,19.22,0,0,1-.74-3.26l7.16,5.71c.73-.55-.76-1.37-1.11-1.59-1.47-.93-2.8-2.15-4.16-3.21-2.25-1.76-5-3.65-5.57-6.66,2.14.63,3.9,2.2,5.7,3.47,1.1.77,3.83,3.35,5.37,2.89,0-.66-.62-.55-1-.77a15.93,15.93,0,0,1-2.21-1.32c-1.43-1-2.82-2-4.26-3-1.26-.83-2.92-1.29-4.08-2.21a8.34,8.34,0,0,1-2.49-4.84,3.75,3.75,0,0,1,2.63,1.14,13.15,13.15,0,0,0,3.91,2.38c1.42.65,2.87,1.27,4.25,2a15.12,15.12,0,0,1,3.06,2.36c.58.52.29-.52.13-.75a5.52,5.52,0,0,0-1.09-1.07,15.67,15.67,0,0,0-3.2-1.72c-2.29-1-5.06-1.84-6.81-3.71a23.53,23.53,0,0,1,4.08,1.44,20,20,0,0,0,5.88.4A26.29,26.29,0,0,0,78.72,31c4-1.08,8.15-1.68,11.12-4.77a18,18,0,0,1-2.57,4.58,11.51,11.51,0,0,1-4,2.75c-2.06,1-7,2.25-7.26,5.1.71.27.93-1,1.3-1.36a12.09,12.09,0,0,1,3.13-1.82,37.54,37.54,0,0,0,6.53-3.56,9.08,9.08,0,0,1-3.11,5.81c-1.68,1.4-3.75,2.17-5.53,3.4-.35.24-2.53,1.92-1.77,2.17.39.13,2.15-1.74,2.54-2,2-1.36,4.56-2.25,6.06-4.21,0,1.16-.74,2.08-1.09,3.12-.29.81-.36,2-1,2.61a14.47,14.47,0,0,1-3.9,1.82c-1.09.4-2.7.82-3.25,2,.64.56,2.12-.87,2.69-1.11a23.79,23.79,0,0,0,4.51-2c0,.65.12,1.79-.58,2.15l-4.23,2.2c-.31.16-2.74,1.06-2.6,1.6s.49.11.78,0q3.08-1.6,6.14-3.22a12.58,12.58,0,0,1-3.22,4.24,9.06,9.06,0,0,1-2.21,1.7c-.44.18-1.36.33-1.19,1,2.32.12,4.31-2.82,5.6-4.39a4.93,4.93,0,0,1,.1,2.61c-.24.48-1.1.86-1.5,1.22-.8.74-1.53,1.54-2.26,2.35-.29.32-1.49-.34-1.89-.36a2.63,2.63,0,0,0-2.21.85,17,17,0,0,0-3.85-3.72,3.2,3.2,0,0,1-1.25-1.33,12.17,12.17,0,0,1-.05-3l5.18,3.13c.66-.66-1-1.26-1.45-1.51-.86-.52-1.72-1-2.57-1.57A5.65,5.65,0,0,1,67.09,44c0,.13.08.25.11.38,0-.09,0-.17-.07-.25C66.85,43.11,67.36,44.88,67.13,44.11Zm1.49,7a38.87,38.87,0,0,0,3.83,3.65c.53.53,1.16.91,1.12,1.71a11.85,11.85,0,0,0-.18,1.88c-.58-.38-1.5-.4-2-.93a9.83,9.83,0,0,0-1.55-3,10,10,0,0,1-1.26-3.27c.17.23,0,.68.18.85a3,3,0,0,1-.18-.85C69.57,52.34,68.93,52.9,68.62,51.11Zm1.31,9.38a2.08,2.08,0,0,1,1.3-2.24c.58-.17,2.1,1.27,2.44,1.7.31,1,.61,1.06.12,1.93-.33.59-1.43.07-1.93.09a6.76,6.76,0,0,1-1.93-1.48s.24.16.27.26a1.11,1.11,0,0,1-.27-.26C69.73,59.68,70.55,61.16,69.93,60.49Zm.15,5.59c-.81,0-1-1.47-.88-2,.14-1.05,1.72-1.21,2.54-1.27a4.9,4.9,0,0,0,1.69.43,3,3,0,0,0,.35,1.5A5.16,5.16,0,0,1,70.08,66.08Zm-10-3a2.83,2.83,0,0,0-.92-1l1.3-.22c-.08.29-.16.57-.22.86-.07.45-.15.53-.24.23a.2.2,0,0,1,.08.17C59.9,62.7,60.12,63,60.09,63.05Zm.49-1.82-1.79.32a6.43,6.43,0,0,1-.43-6.27A6.24,6.24,0,0,1,60.58,61.23Zm4.08,3.47c-.49-1.9-2.09-2.47-3.76-1.54A2.41,2.41,0,0,1,64.31,61c1.38.61,1,2.72.35,3.73a.53.53,0,0,1,0-.49c.2,0,0,.49,0,.49C64.15,62.72,64.93,64.3,64.66,64.7ZM23.91,28.55a3.39,3.39,0,0,1,1.55-1.3c.46-.23,1.37-.32,1.72-.69a3.55,3.55,0,0,0,.59-1.4,7.54,7.54,0,0,1,1.1-2,7,7,0,0,1,7.62-2.76c-3.09,1.11-7,3.75-7.12,7.39-.11,3.45,2.82,6.44,5.65,8a20,20,0,0,0,9.25,2.15c.29,0,1.41-.08.64-.5a3.25,3.25,0,0,0-1.58-.12,16.89,16.89,0,0,1-6-1.13,6.57,6.57,0,0,1,3.83-3.48,6.48,6.48,0,0,1,2.39-.27c.6,0,1.83.72,1.85-.19-2.14-1.07-5.18-.28-6.85,1.32-.43.4-1.32,2.25-1.87,2.3s-1-.38-1.34-.55c-.86-.45-1.58-.59-1.21-1.6a7.65,7.65,0,0,1,4.43-4.21,12.89,12.89,0,0,1,3.3-.89c.63-.09,2.45.2,2.2-.69-4.18,0-9.39,1.68-10.58,6.2a10.14,10.14,0,0,1-1.58-1.49c.4-1.51.36-3,1.27-4.33a7.68,7.68,0,0,1,3.06-2.56,9.69,9.69,0,0,1,4-1.08c.46,0,2.08.15,1.87-.7-5,0-10.4,2.6-10.65,8.13-2.17-2.92-2.11-5.86.63-8.37,2.25-2.05,5.58-3.79,8.5-2,1.33.82,2.27,2.48,3.06,3.78a15.85,15.85,0,0,1,2,4.86,14.07,14.07,0,0,1-1.75,10.27,2.77,2.77,0,0,1-.15-.49,14.76,14.76,0,0,1-7.92.6c-2.55-.62-3.58-2.67-5.37-4.36s-3.85-3.44-6.21-3.92c-1.86-.38-.73-3-.15-4.22-.12.24-.27.49-.41.72.07-.11.14-.24.21-.36Zm-2.78,8.53a4.5,4.5,0,0,1,1.68-3.91c1.23-1,3.38.55,4.45,1.26-2.43.23-4.13,2.6-5,4.67a5,5,0,0,1-1.19-2.29c0,.17.08.35.11.53a1.19,1.19,0,0,1-.05-.26C20.86,35.8,21.31,38,21.13,37.08ZM22.73,40c-.08-2.43,2.89-5.24,5.31-5,.5.38,1,.8,1.53,1.24-3.12,1.32-3.89,6-4.58,8.9A6.65,6.65,0,0,1,22.73,40c0-.09-.12,2.14,0,0C22.66,37.75,22.61,42.1,22.73,40Zm7.58,7.9a9.31,9.31,0,0,1-4.43-2c-.9-.69.22-3,.5-3.84a13.31,13.31,0,0,1,1.86-3.94c.34-.45.9-1.22,1.49-1.37s1.68,1.28,2,1.76a6.63,6.63,0,0,0-2,4.06c-.16,1.75.67,3.29,1.22,4.9a2.46,2.46,0,0,0,.44-.31A6.52,6.52,0,0,1,32,39a6.28,6.28,0,0,0,1.53,1.38c-2.1,1.41-.42,4.95.43,6.62.82-.22-.58-2.82-.69-3.47-.16-.91-.28-2.48.83-2.84,3,1.51,6.69,1,9.74,0-2.73,4.49-8.43,7.78-13.8,7.21l1.07.11-.84-.09ZM44,51c3.8,1,8.34,0,11.91,1.87.36-.78-.39-.81-1.1-1.05a13.76,13.76,0,0,0-2.37-.53c-1.65-.24-3.31-.27-5-.38-1.36-.09-3-.06-4.18-1a7.06,7.06,0,0,1-2.26-3.8c3.89,2.12,8.5,2.73,12.87,2.73.25-.77-.62-.58-1.07-.61-1.34-.08-2.68-.22-4-.39-2.33-.29-5.21-.59-7.2-2-.8-.55-.37-.83.16-1.38a2,2,0,0,1,2.46-.6c2,.62,3.62,1.94,5.59,2.56.22.07,2.65.57,1.83-.16-.18-.16-.5-.13-.72-.14a5.72,5.72,0,0,1-1.81-.53c-2-.83-3.87-2.46-6.13-2.49a15.84,15.84,0,0,0,.07-20c6.18,2.29,6.23,9.76,6.09,15.27,0,.33,0,.92.27,1.14.66.47.36-1.09.35-1.37,0-1.57,0-3.15-.16-4.72-.23-3.1-1-6.19-3.13-8.55a17.22,17.22,0,0,1,3.37,2.64c1,.95,1,2.38,1.11,3.67.21,3.28.1,6.57.55,9.83,0,.33.07,1.88.53,1.69s.27-.6.24-.87c-.18-1.2-.45-2.35-.53-3.58-.23-3.22,0-6.51-.58-9.7,4.32,3.62,2.56,9.58,2.4,14.43,0,.34.43,3.24.79,2.09.25-.77-.16-2.19-.13-3a73.13,73.13,0,0,0,.28-8.88l.47.61-.08-.23a10.2,10.2,0,0,1,2.69,8.2A40.21,40.21,0,0,1,57,46.2c-.21,1.15-.67,2.66.08,3.72.71-.27.13-1.28.17-1.79.1-1.31.43-2.6.64-3.9a15.39,15.39,0,0,0-.27-7.36c1.41,2.05,3,4.47,3.08,7.05,0,2.86-.83,5.79-1.27,8.61-.12.72-.23,1.45-.32,2.17a.44.44,0,0,0,.65-.33c.25-.89.21-2,.37-2.88.44-2.61,1.51-5.63,1-8.28,1.79,1.7,2.52,4.61,2.49,7a14.13,14.13,0,0,1-.91,4.58c-.45,1.32-1.32,2.61-1.28,4.05.85.13,1-1.74,1.19-2.27a34,34,0,0,0,1.43-5,53.71,53.71,0,0,1,.7,8.69c-1-.36-2.39-.64-3.27.09a7,7,0,0,0-3.31-6.15,6.58,6.58,0,0,0-1,2.49C55,55,52.21,54.79,49.57,54.58c-.78-.06-3.12,0-3.37-1C45.89,52.38,44.69,52,44,51c.06,0,.68.51.5.56S44,51,44,51C47.83,52.05,44.83,52.19,44,51Zm2.3,3.48c1.92,1,4.25.57,6.33.94a11.82,11.82,0,0,1,3.46,1.23c1.23.63.77,1.71,1,2.87-1-1.08-2.73-1.31-4.12-1.46s-3.78.07-5.06-.83a4.94,4.94,0,0,1-1.65-2.75c.12.07.43.43.28.59s-.32-.76-.28-.59C48.14,55.47,46.61,55.7,46.33,54.49Zm4.58,6.13c-.73-1-2.17-1.4-2.66-2.59,1.69.4,3.43.49,5.14.76.67.11,3.48,1.27,3.77.74a7.75,7.75,0,0,0,.7,1.94c-2.34,0-5.21,1.47-7-.85-.09-.11.25.34,0,0C50.21,59.66,51.14,60.93,50.91,60.62Zm6,3.85a2.87,2.87,0,0,0-.66,2.07c-1.08-.67-2.46-3-.93-4a3.11,3.11,0,0,1,3.88.79,3.69,3.69,0,0,0-2.45,1.29c.14-.12.25-.26.37-.38l-.21.23C56.33,65.06,57.63,63.72,56.91,64.47Zm-8.81,0c.84-1.27,2.21-.12,2.13,1-.08,1-1.91,1.39-2.09.38a1.45,1.45,0,0,1,0-1.53s-.21.33-.07.11S47.91,64.77,48.1,64.47Zm-.85,1.3c.12.25.22.51.35.76-.3-.21-.26-.45-.35-.76,0,0,.09.32,0,0C47.36,66.05,47.33,66,47.25,65.77Zm1.35,3.14a4.89,4.89,0,0,1-1.16-1.56c.71.43,1.12,1.18,1.78,1.67-.2.35-.41.32-.62-.11C48.08,68.39,48.72,69,48.6,68.91Zm11.95-2.37c4.1,4.74,10.62,4.16,15.27.54,4,4,11.09,3.74,15-.3a9.76,9.76,0,0,0,5.91,4.75,10.19,10.19,0,0,0,4.26,0c.64-.16,3-1.08,2.63-2.12-.09-.26-2.41,1.2-2.83,1.32a7.49,7.49,0,0,1-3.76.08c-2.83-.63-4.79-2.92-6.06-5.4C87.21,69.81,80,70.57,76,66.14c-.25-.26-1.88,1.08-2.11,1.25a11.39,11.39,0,0,1-4.8,1.79A9.21,9.21,0,0,1,60.4,65c-.89,2.1-2.31,4.55-4.52,5.47a5.47,5.47,0,0,1-6.12-1.15c2.05,1,4.81,1.76,6.84.29,1.71-1.24,2.73-3.62,3.83-5.15.27.91,1.76,1.55,2.49,2a13.2,13.2,0,0,0,4.06,2,8.66,8.66,0,0,0,5-.84c1.43-.62,2.67-1.64,4.22-1.88a8,8,0,0,0,7.61,2.61c2.58-.6,5.62-2.13,7.18-4.34a11.55,11.55,0,0,0,5.48,6,5.67,5.67,0,0,0,3.9.18c1.15-.25,2.71-1.46,3.78-1.27a2.31,2.31,0,0,1,.34-.1,16,16,0,0,0-1.76,2.64c-.42.78-.57,1.64-1,2.4s-1.56.16-2.19,0c-1.27-.23-2.55-.43-3.84-.63a134,134,0,0,0-15.89-1.42,110.71,110.71,0,0,0-15.23.58c-2.51.28-5,.62-7.51,1.06-1.25.22-2.49.46-3.74.73-.83.17-1.68.73-2.11-.2a11.49,11.49,0,0,0-1.43-3.59c.11.08,0,0,0,0C54.12,73.7,58.53,70.49,60.55,66.54ZM52.94,79.9c.73.77,2.32,0,3.15-.21,1-.2,2.16-.49,1.88-1.77s-1.67-1-2.69-.75c-.85.18-2.41.13-2.72,1.19-.24-1-.48-2-.76-3,1.68,0,3.58-.79,5.26-1.08,2.11-.37,4.24-.69,6.37-.94a109.24,109.24,0,0,1,13-.79c4.21,0,8.39.24,12.56.65,2.16.22,4.3.49,6.45.8s3.93.89,6,1c-.32,1.18-.63,2.37-1,3.56-.2-1.16-1.77-1.22-2.65-1.46s-2.13-.8-2.62.25c-.55,1.23.29,1.86,1.37,2.16s2.78,1.26,3.56.31c-.15.58-.08,2.16-.65,2.5a124,124,0,0,0-19.89-1.84c-3.34-.07-6.68,0-10,.18-1.76.1-3.53.25-5.28.44a46.59,46.59,0,0,1-4.68.57c-2,.42-3.95.69-5.91,1.18-.26-1-.49-2-.73-3a.83.83,0,0,1,.2.6c0,.11-.28-.93-.2-.6C53.57,80.55,53.25,81.15,52.94,79.9ZM22.15,84.62c-.89-3.59,3.37-6.36,6.59-6.3,3.69.07,7.25,2.59,10.2,4.58s6.15,4.72,9.73,5.09a6.57,6.57,0,0,0,4.91-1.61,7.45,7.45,0,0,0,1.56-1.85c.23-.4.61-1.3,1.17-1.3-.41,3-3.56,5.49-6.26,6.49-3.45,1.28-6.75-1.19-9.49-3-3.06-2-6.18-4.36-9.83-5.13-3.09-.66-6.74.28-8.58,3-.11-.16-.11-.28,0-.34a.3.3,0,0,1,0,.34C21.9,83.61,22.34,84.34,22.15,84.62Zm32.56-1.05.57-.12c-1.48,2.36-3.94,4.5-6.93,3.94-3.5-.65-6.42-3.31-9.36-5.15s-6.13-4.11-9.76-4.46A8.27,8.27,0,0,0,21.62,82c-.74-3.23,2.05-5.92,4.94-6.8,3.28-1,7.06.38,9.9,2C41.17,79.92,49.27,91.23,54.71,83.57ZM22.84,74.69c1.78-2,4.69-2.09,7.16-1.8a20.26,20.26,0,0,1,8.85,3.23c2.68,1.75,4.85,4.11,7.23,6.23a10.46,10.46,0,0,0,3.61,2.36c1.62.52,2.7-.38,4.13-.95-5,4.71-10.42-1.7-14.09-4.89a18.21,18.21,0,0,0-8.86-4.29,9.41,9.41,0,0,0-9.43,3.69,5.87,5.87,0,0,1,1.72-4,5.21,5.21,0,0,0-.66.75,4,4,0,0,1,.34-.38C25,72.28,21.66,76,22.84,74.69Zm-.46,10.55C26.62,78.9,34.19,83.3,39,86.38c3,1.94,6.62,4.81,10.45,4a10.26,10.26,0,0,0,5.38-3.47,9.06,9.06,0,0,0,1.63-2.44c.39-.91.15-1.35,1.14-1.54a11.52,11.52,0,0,1-6.49,9.56c-3.61,1.77-7.07.26-10.27-1.58C36,88.09,28.28,82.43,22.92,87.4c0-.44-.58-2.17-.42-2.32,0,0-.09.2-.12.16C27.32,77.86,22.42,85.3,22.38,85.24Zm3,6.61A2.34,2.34,0,0,1,27,89.69c1.17-.21,1.5,1.42,1.37,2.25s-.85,2.49-1.94,1.87a2.46,2.46,0,0,1-1-2.29v.33Zm3,1.44a5.94,5.94,0,0,0,.46-1.48,2.5,2.5,0,0,1-.46,1.48.91.91,0,0,1,.2-.36.86.86,0,0,1-.2.36C28.64,92.71,28.67,92.91,28.38,93.29Zm27-1.19a11.65,11.65,0,0,1-7.51,4.45c-3.43.58-6.31-.82-9.18-2.55a44.19,44.19,0,0,0-9.91-4.66c-1.57-.47-3.17-.54-3.9,1.24a3.27,3.27,0,0,0,.87,3.73c-3.45.18-4.58-4.34-2.5-6.6,3.41-3.7,9.51-.66,13,1.25,4.42,2.47,9.49,6.66,14.76,4.24a12.82,12.82,0,0,0,5.6-5A8.78,8.78,0,0,0,58,84.55c0-.42-.12-1.83.61-1.81a28.87,28.87,0,0,1-3.57,10,17.06,17.06,0,0,1,1-1.42c-.2.26-.39.55-.57.83C53.34,95.08,57.25,89.41,55.4,92.1Zm11.69-2.87a5.5,5.5,0,0,0-2.23-3.89c.61,0,1.46-.31,2,0s.21,3.18.21,3.86C66.85,87.19,67.09,88.06,67.09,89.23Zm19,0a5.48,5.48,0,0,0-2.18-3.87h2.18Zm3.61-4.81a5.73,5.73,0,0,0,.42-1.75c-.6.27-2.68,2.54-3.37,1.84-.08-.07.08-1.47-.45-1.08-.29.19-.21.85-.21,1.15l-5.84,0a4.75,4.75,0,0,0,.15-1,7,7,0,0,0-1.14.82,4,4,0,0,1-2.19.22c0-.33.27-1.89-.32-1.89s-.34,1.54-.34,1.89H70.62a5.74,5.74,0,0,0,.5-1.89c-1,.41-1.6,1.55-2.52,1.83-.55.17-.81.19-.89-.36,0-.11-.16-.76-.42-.49-.54.57.33.92-.78.91-.77,0-1.53,0-2.29-.06-1.71-.07-3.42-.21-5.13-.36.11-.52.08-1.59.76-1.7s1.51-.18,2.27-.28c1.86-.24,3.73-.44,5.61-.58,4.08-.3,8.19-.38,12.3-.29,3.92.09,7.86.34,11.77.76,1.37.14,2-.12,2.09,1.32,0,.9-3.46,1-4.17,1,.35-.85,1.23-.17,0,0C90.11,83.45,91.11,84.22,89.72,84.41Zm36.63,9.07c-1.93,0-2.34-4.34,0-4.34S128.61,93.48,126.35,93.48Zm3.69-.65a2.88,2.88,0,0,1-2.38,1,3.33,3.33,0,0,0,.91-3.79c-.71-1.85-2.5-1.81-4.14-1.33-4.52,1.37-8.42,3.9-12.57,6.07-8.54,4.43-17.19-3.48-17.25-12.22.74-.07.66.78.68,1.27a8.59,8.59,0,0,0,1,3.35A12.66,12.66,0,0,0,100.57,92a8.6,8.6,0,0,0,6.65,1.66,22.84,22.84,0,0,0,6.49-3c3.72-2.18,8-5.23,12.52-4.78,1.54.16,3.67.76,4.32,2.34.52,1.29.6,3.61-.51,4.62C129.54,93.56,131.08,91.9,130,92.83Zm.78-8.37c-1.66-2.9-5.56-3.79-8.62-3.16-3.7.78-7,3.21-10,5.28-2.66,1.79-5.88,4.07-9.21,2.87-2.68-1-6.13-3.46-6.36-6.56,1.06-.11,2.23,2.34,3,3a6.83,6.83,0,0,0,4.63,1.58c1.81,0,3.41-1,4.89-2,1.94-1.17,3.83-2.4,5.74-3.59,3-1.9,6.47-4.3,10.23-4.12,3.57.17,7,2.86,5.72,6.65,0,0-.11-.45.06-.43a.55.55,0,0,1-.06.43C129.47,82.09,131.08,83.7,130.82,84.46Z"/><path class="cls-1" d="M61.86,8.81a10.26,10.26,0,0,1,2.82.31c.61.18,1.81-.24.75-.46a14.9,14.9,0,0,0-6.13-.11c-4.07.9-6.61,4.48-7.41,8.42a9.77,9.77,0,0,0-.17,2.59c.07.94.54,1,.67.08.28-1.82.22-3.46.94-5.23A9,9,0,0,1,62,8.81h-.16Z"/><path class="cls-1" d="M74.47,77.64c1,0,3.24.43,4.08-.24S79.1,75,78,75c-.95-.27-3.27-.37-4,.41S73.22,77.64,74.47,77.64Z"/><path class="cls-1" d="M71.05,78.3c2.15,0,2.15-3.48,0-3.48S68.9,78.3,71.05,78.3Z"/><path class="cls-1" d="M81.81,78.3c2.13,0,2.14-3.48,0-3.48S79.63,78.3,81.81,78.3Z"/><path class="cls-1" d="M64,78.28c1.17-.12,3.42.13,4.1-1.07.44-.77.25-2.06-.86-1.94-.89-.15-3.4,0-4.06.68s-.31,2.45.82,2.33Z"/><path class="cls-1" d="M85.35,77.72c1.15.13,3.36.87,4.25-.16.58-.68.61-2-.49-2.1-.92-.36-3.24-.7-4.07,0s-.91,2.14.31,2.27Z"/><path class="cls-1" d="M60.55,79.17c2.15,0,2.15-3.48,0-3.48S58.37,79.17,60.55,79.17Z"/><path class="cls-1" d="M92.42,79.3c2.15,0,2.14-3.49,0-3.49S90.27,79.3,92.42,79.3Z"/><path class="cls-1" d="M77.19,94.17h0a6.28,6.28,0,0,0,3.72-5.26A6.24,6.24,0,0,0,77.19,94.17Z"/><path class="cls-1" d="M72.61,90.06a6.3,6.3,0,0,0,3.74,5.27A6.26,6.26,0,0,0,72.61,90.06Z"/><path class="cls-1" d="M67.86,93.33v0a6.3,6.3,0,0,0,3.73-5.27A6.26,6.26,0,0,0,67.86,93.33Z"/><path class="cls-1" d="M63.33,90.14a6.09,6.09,0,0,0,3.75,5.25A6.26,6.26,0,0,0,63.33,90.14Z"/><path class="cls-1" d="M86.88,93.33v0a6.3,6.3,0,0,0,3.74-5.27A6.28,6.28,0,0,0,86.88,93.33Z"/><path class="cls-1" d="M82.36,90.14a6.31,6.31,0,0,0,3.72,5.26A6.25,6.25,0,0,0,82.36,90.14Z"/></svg>