<svg xmlns="http://www.w3.org/2000/svg" viewBox="0 0 239.3 95"><g data-name="Layer 2"><path d="M133.3 31H97.6V1h35.2v6.3h-27.3v5.2h26V19h-26v5.7h27.8zm49-6.4h-27.8v-5.7h26v-6.4h-26V7.3h27.2V1h-35.1V31h35.7zm55.6-14.8a13.6 13.6 0 0 0-3.6-4.7 16.9 16.9 0 0 0-5.7-3.1 24.3 24.3 0 0 0-7.5-1.1h-25V31h7.3V7.8h18.4a10.4 10.4 0 0 1 3.7.6 8.7 8.7 0 0 1 3 1.8 8.3 8.3 0 0 1 1.8 2.8 8.7 8.7 0 0 1 .7 3v.2a11.4 11.4 0 0 1 0 1.5c-.9 6.3-5.8 10.6-17.4 14.2q-2.8 1-6.3 1.8L119.7 55 31.9 33.7 25.5 32c-7.7-2.4-17-6.8-17-15.6a8.2 8.2 0 0 1 .9-3.7 8.8 8.8 0 0 1 2.3-2.9A11 11 0 0 1 15.2 8a18.1 18.1 0 0 1 5.1-.7 19 19 0 0 1 7 1.4 31.2 31.2 0 0 1 9 6V5.2a27.2 27.2 0 0 0-5-3.1A25.6 25.6 0 0 0 20.4 0 26.8 26.8 0 0 0 12 1.3a20.8 20.8 0 0 0-6.8 3.6 14 14 0 0 0-3.9 5 14 14 0 0 0-1.3 6 17.4 17.4 0 0 0 3.8 11.6c3.9 4.6 11.4 9.3 27.5 13.2L105 58.5l-86.8 21h29.2L119.5 62 192 79.5H221l-86.8-21L208 40.7c16-4 23.6-8.6 27.5-13.2a17.4 17.4 0 0 0 3.7-11.6 14 14 0 0 0-1.3-6zM56.5 31h-8V1H73a14.6 14.6 0 0 1 4.7.6 10.2 10.2 0 0 1 3.6 2 9.2 9.2 0 0 1 2.2 3.1 9.7 9.7 0 0 1 .8 4c0 4.6-2 7.8-6 9.2L87.7 31H78l-8.9-10.3H56.6zm0-16.7h15.7a4.8 4.8 0 0 0 3.2-1 3.3 3.3 0 0 0 1.2-2.6 3 3 0 0 0-1.2-2.5 5 5 0 0 0-3.2-1H56.5zm0 16.7h-8V1H73a14.6 14.6 0 0 1 4.7.6 10.2 10.2 0 0 1 3.6 2 9.2 9.2 0 0 1 2.2 3.1 9.7 9.7 0 0 1 .8 4c0 4.6-2 7.8-6 9.2L87.7 31H78l-8.9-10.3H56.6zm0-16.7h15.7a4.8 4.8 0 0 0 3.2-1 3.3 3.3 0 0 0 1.2-2.6 3 3 0 0 0-1.2-2.5 5 5 0 0 0-3.2-1H56.5zm33.2 79.5c0 .5-.1.7-.6.7v.3h4.2v-.3c-.5 0-.7-.2-.7-.7V81c0-.5.2-.7.7-.7V80h-4v.3a.5.5 0 0 1 .5.5c0 .5-1 1-1.4 1s-.5-.1-.5-.4h-.3v3.2h.3c0-.5.3-.8 1.8-.8zm12.6 0a1.1 1.1 0 0 1-.9.7v.3h4.6v-.3c-.2 0-.4 0-.4-.2a1.6 1.6 0 0 1 .2-.6l7-11.5v-2.7h-.3c0 .3-.3.5-.8.5H99.8c-.4 0-.7-.2-.7-.5h-.3v3.4h.3c0-.3.3-.4.7-.4h9.5zM131 81l-.3-.1a.3.3 0 0 1-.3.2 13.5 13.5 0 0 1-1.5-.7 9 9 0 0 0-3.4-.6c-4.7 0-7.8 3.1-7.8 7.8s2.6 7.4 7.3 7.4c3.3 0 6.8-1.4 6.8-5.2 0-3.3-3-5-6.2-5a7.4 7.4 0 0 0-5 1.8c.2-3 2.1-4.5 5-4.5 2.4 0 3.6 1.2 3.6 1.7a.5.5 0 0 1 0 .3h.3zm-2.1 9c0 1.8-1.5 2.6-3.9 2.6s-3.9-.8-3.9-2.6c0-1.3 1.4-2.7 3.9-2.7s3.9.8 3.9 2.7zm15.4-10.2c-4.5 0-7.5 3.2-7.5 7.6s3 7.6 7.5 7.6 7.5-3.3 7.5-7.6-3-7.7-7.5-7.7zm0 2.4c2.8 0 4.6 2.1 4.6 5.2s-1.8 5.2-4.6 5.2-4.6-2-4.6-5.2 1.8-5.2 4.6-5.2z" fill="#222" data-name="Layer 1"/></g></svg>